# xmcd
#
# Track frame offsets: 
#        150
#        19306
#        34359
#
# Disc length: 673 seconds
#
# Revision: 0
# Processed by: cddbd v1.5.2PL0 Copyright (c) Steve Scherf et al.
# Submitted via: ExactAudioCopy v1.0b4
#
DISCID=21029f03
DTITLE=Alabama Shakes - Sound and Color [disk 2]
DYEAR=2015
DGENRE=Blues Rock
TTITLE0=Gimme All Your Love (Live From the Artists Den)
TTITLE1=The Greatest (Live From the Artists Den)
TTITLE2=Joe (Live From the Artists Den)
EXTD=
EXTT0=
EXTT1=
EXTT2=
PLAYORDER=
